Coordinates
version=1
nRows=12
nColumns=46
inDegrees=yes

Units are S.I. units (second, meters, Newtons, ...)
Angles are in degrees.

endheader
time	pelvis_tilt	pelvis_list	pelvis_rotation	pelvis_tx	pelvis_ty	pelvis_tz	bb_angle	bb_tx	bb_ty	bb_tz	hip_flexion_r	hip_adduction_r	hip_rotation_r	knee_angle_r	knee_angle_r_beta	ankle_angle_r	subtalar_angle_r	mtp_angle_r	crank_angle_r	hip_flexion_l	hip_adduction_l	hip_rotation_l	knee_angle_l	knee_angle_l_beta	ankle_angle_l	subtalar_angle_l	mtp_angle_l	crank_angle_l	lumbar_extension	lumbar_bending	lumbar_rotation	arm_flex_r	arm_add_r	arm_rot_r	elbow_flex_r	pro_sup_r	wrist_flex_r	wrist_dev_r	arm_flex_l	arm_add_l	arm_rot_l	elbow_flex_l	pro_sup_l	wrist_flex_l	wrist_dev_l
      0.00000000	    -34.56004822	    -36.37885870	    -24.10083425	      0.03772051	      0.80176692	     -0.17258549	      0.00000000	      0.50000000	      0.00000000	      0.25000000	     91.84426117	     29.98354509	    -26.58701866	     88.28605129	      1.54088228	    -39.74808467	     -6.19799627	      0.00000000	      0.00000000	     30.78010726	    -18.60162332	     39.96004851	     21.78739023	      0.38026169	    -39.88085994	    -34.92169557	      0.00000000	      0.00000000	    -89.88249083	    -22.54725912	      2.44997833	     80.84046736	   -119.77480946	    -37.58146828	     90.65459509	     31.72634663	      0.00000000	      0.00000000	    -20.53188074	     89.71388592	     26.07561327	    116.32441626	      4.96947897	      0.00000000	      0.00000000
      0.00500000	    -34.56372206	    -36.38494962	    -24.10335501	      0.03773029	      0.80176811	     -0.17259964	      0.00000000	      0.50000000	      0.00000000	      0.25000000	     91.84874160	     29.98354639	    -26.59333730	     88.28652323	      1.54089052	    -39.74770956	     -6.19617591	      0.00000000	      0.00000000	     30.77524501	    -18.60969637	     39.96004591	     21.77046114	      0.37996623	    -39.88093704	    -34.92167290	      0.00000000	      0.00000000	    -89.88296587	    -22.54225611	      2.44103567	     80.86078243	   -119.77495551	    -37.58205549	     90.67055433	     31.72838433	      0.00000000	      0.00000000	    -20.54191030	     89.71226008	     26.08966484	    116.37654035	      4.97842398	      0.00000000	      0.00000000
      0.01000000	    -34.56821328	    -36.38723314	    -24.10488759	      0.03772953	      0.80177194	     -0.17259652	      0.00000000	      0.50000000	      0.00000000	      0.25000000	     91.85305973	     29.98354643	    -26.59628132	     88.28514801	      1.54086651	    -39.74761700	     -6.19517750	      0.00000000	      0.00000000	     30.77523849	    -18.61656882	     39.96003984	     21.75537975	      0.37970301	    -39.88100174	    -34.92165977	      0.00000000	      0.00000000	    -89.88313194	    -22.53840924	      2.43124024	     80.87550589	   -119.77465299	    -37.57875425	     90.68554657	     31.73045573	      0.00000000	      0.00000000	    -20.55214626	     89.71116302	     26.10370165	    116.41659951	      4.98491610	      0.00000000	      0.00000000
      0.01500000	    -34.54325388	    -36.40267625	    -23.99802931	      0.03763927	      0.80180375	     -0.17217254	      0.00000000	      0.50000000	      0.00000000	      0.25000000	     91.89617617	     29.98354602	    -26.59383229	     88.29353642	      1.54101292	    -39.74688101	     -6.19689267	      0.00000000	      0.00000000	     30.81342573	    -18.62285979	     39.96003599	     21.73624165	      0.37936898	    -39.88130845	    -34.92161457	      0.00000000	      0.00000000	    -89.88231227	    -22.50080564	      2.44954446	     80.88774682	   -119.77736298	    -37.56914630	     90.69512551	     31.73211783	      0.00000000	      0.00000000	    -20.56314676	     89.70901226	     26.11441743	    116.44512651	      4.98924292	      0.00000000	      0.00000000
      0.02000000	    -34.52238160	    -36.41043720	    -23.97567127	      0.03766288	      0.80180004	     -0.17222684	      0.00000000	      0.50000000	      0.00000000	      0.25000000	     91.87973280	     29.98354461	    -26.58838566	     88.29732011	      1.54107896	    -39.74738128	     -6.19720742	      0.00000000	      0.00000000	     30.78948492	    -18.61541361	     39.96004502	     21.72212747	      0.37912264	    -39.88126144	    -34.92157636	      0.00000000	      0.00000000	    -89.88436022	    -22.45015645	      2.47685727	     80.92254945	   -119.77233115	    -37.56898893	     90.70865068	     31.73406085	      0.00000000	      0.00000000	    -20.57551324	     89.71048165	     26.12657248	    116.46604646	      4.99197335	      0.00000000	      0.00000000
      0.02500000	    -34.50773993	    -36.40153560	    -23.97532448	      0.03772077	      0.80192493	     -0.17230757	      0.00000000	      0.50000000	      0.00000000	      0.25000000	     91.83752771	     29.98351581	    -26.56340141	     88.27872995	      1.54075450	    -39.74268925	     -6.19876659	      0.00000000	      0.00000000	     30.76244495	    -18.61034585	     39.96009139	     21.70324335	      0.37879305	    -39.88162210	    -34.92163319	      0.00000000	      0.00000000	    -89.88445429	    -22.47670529	      2.47197804	     80.91546057	   -119.77796837	    -37.55198299	     90.72579618	     31.73723635	      0.00000000	      0.00000000	    -20.59073582	     89.70007029	     26.13506595	    116.47670781	      4.99286765	      0.00000000	      0.00000000
      0.03000000	    -34.49039435	    -36.36237861	    -23.99600682	      0.03781996	      0.80203224	     -0.17247327	      0.00000000	      0.50000000	      0.00000000	      0.25000000	     91.77783201	     29.98350090	    -26.51640035	     88.26567844	      1.54052671	    -39.74203910	     -6.20304820	      0.00000000	      0.00000000	     30.71612704	    -18.57742872	     39.96008846	     21.68182924	      0.37841931	    -39.88168645	    -34.92162037	      0.00000000	      0.00000000	    -89.88614771	    -22.47348682	      2.49227620	     80.92409745	   -119.77747011	    -37.54133501	     90.74820920	     31.74116716	      0.00000000	      0.00000000	    -20.60846833	     89.69878161	     26.14125971	    116.47481729	      4.99146631	      0.00000000	      0.00000000
      0.03500000	    -34.46566648	    -36.32787520	    -23.99952305	      0.03798079	      0.80218651	     -0.17264070	      0.00000000	      0.50000000	      0.00000000	      0.25000000	     91.70223291	     29.98348094	    -26.46582666	     88.24770444	      1.54021300	    -39.74094956	     -6.21073354	      0.00000000	      0.00000000	     30.66567516	    -18.54174823	     39.96003638	     21.65892304	      0.37801952	    -39.88178092	    -34.92153147	      0.00000000	      0.00000000	    -89.88745078	    -22.51940457	      2.46324317	     80.91113652	   -119.77873403	    -37.52334290	     90.77094101	     31.74537946	      0.00000000	      0.00000000	    -20.62776645	     89.69979739	     26.14503149	    116.46054469	      4.98790025	      0.00000000	      0.00000000
      0.04000000	    -34.43474799	    -36.25871880	    -24.02664208	      0.03816403	      0.80234899	     -0.17287455	      0.00000000	      0.50000000	      0.00000000	      0.25000000	     91.60546903	     29.98345702	    -26.38437842	     88.22990346	      1.53990231	    -39.74034029	     -6.22303063	      0.00000000	      0.00000000	     30.59234136	    -18.48004116	     39.96003216	     21.63394441	      0.37758356	    -39.88188734	    -34.92149212	      0.00000000	      0.00000000	    -89.88999395	    -22.53134893	      2.46774973	     80.91347609	   -119.77841056	    -37.51047592	     90.80064528	     31.75072625	      0.00000000	      0.00000000	    -20.64960424	     89.69898564	     26.14688889	    116.43645831	      4.98261076	      0.00000000	      0.00000000
      0.04500000	    -34.30730903	    -36.11756432	    -23.98152236	      0.03841840	      0.80266590	     -0.17317081	      0.00000000	      0.50000000	      0.00000000	      0.25000000	     91.38772355	     29.98341145	    -26.16451773	     88.19748313	      1.53933647	    -39.74595702	     -6.29209322	      0.00000000	      0.00000000	     30.42724240	    -18.32351561	     39.95985109	     21.55356610	      0.37618069	    -39.88222857	    -34.92123945	      0.00000000	      0.00000000	    -89.89228418	    -22.63737832	      2.46012255	     80.82750382	   -119.77814556	    -37.38151502	     90.84815560	     31.76404657	      0.00000000	      0.00000000	    -20.69692921	     89.71304286	     26.14998597	    116.19957582	      4.93807280	      0.00000000	      0.00000000
      0.05000000	    -34.29481577	    -36.07952407	    -24.02334951	      0.03863220	      0.80281891	     -0.17342475	      0.00000000	      0.50000000	      0.00000000	      0.25000000	     91.31144922	     29.98337773	    -26.13776366	     88.18812030	      1.53917306	    -39.74533607	     -6.29276406	      0.00000000	      0.00000000	     30.36530339	    -18.29461549	     39.95986142	     21.53588320	      0.37587207	    -39.88226419	    -34.92123812	      0.00000000	      0.00000000	    -89.89498481	    -22.64140357	      2.44751460	     80.84618857	   -119.77497210	    -37.38067357	     90.88615770	     31.77023030	      0.00000000	      0.00000000	    -20.73177726	     89.71547281	     26.13841063	    116.18134016	      4.93544741	      0.00000000	      0.00000000
      0.05500000	    -34.25936853	    -36.01059814	    -24.04749542	      0.03889658	      0.80304960	     -0.17370764	      0.00000000	      0.50000000	      0.00000000	      0.25000000	     91.18987368	     29.98334814	    -26.05309636	     88.15929211	      1.53866991	    -39.74484750	     -6.30658050	      0.00000000	      0.00000000	     30.28341426	    -18.22750911	     39.95982701	     21.51075138	      0.37543344	    -39.88241844	    -34.92115294	      0.00000000	      0.00000000	    -89.89687143	    -22.70677593	      2.41118143	     80.83478886	   -119.77673349	    -37.36451856	     90.92733433	     31.77758095	      0.00000000	      0.00000000	    -20.75972303	     89.71683549	     26.13443302	    116.15329176	      4.93088713	      0.00000000	      0.00000000
